<?xml version="1.0" encoding="UTF-8"?><svg id="Layer_1" xmlns="http://www.w3.org/2000/svg" viewBox="0 0 500 500"><defs><style>.cls-1{fill:#fff;}.cls-2{fill:#ff1778;}.cls-3{fill:none;stroke:#24285b;stroke-linecap:round;stroke-miterlimit:10;stroke-width:10px;}.cls-4{fill:#c3c7c9;opacity:.26;}.cls-5{fill:#24285b;}.cls-6{fill:#ffd44d;}.cls-7{fill:#db2868;}.cls-8{fill:#f2f2f2;}</style></defs><g><path class="cls-8" d="M458.87,145.14V404.21c0,7.88-6.39,14.26-14.26,14.26H55.4c-7.88,0-14.26-6.39-14.26-14.26V145.14H458.87Z"/><path class="cls-4" d="M41.13,145.14v33.09H436.9v240.24h7.7c7.88,0,14.26-6.39,14.26-14.26V145.14H41.13Z"/><path class="cls-5" d="M458.87,95.79v63.09H41.13v-63.09c0-7.88,6.39-14.26,14.26-14.26H444.6c7.88,0,14.26,6.39,14.26,14.26Z"/><g><circle class="cls-1" cx="132.24" cy="117.57" r="6.94"/><circle class="cls-1" cx="100.62" cy="117.57" r="6.94"/><circle class="cls-1" cx="69.01" cy="117.57" r="6.94"/></g></g><g><circle class="cls-5" cx="250" cy="239.67" r="19.55"/><g><path class="cls-3" d="M172.63,274.05h0c0,10.33,8.38,18.71,18.71,18.71h10.37"/><path class="cls-3" d="M172.63,337.76h0c0-10.33,8.38-18.71,18.71-18.71h10.37"/><path class="cls-3" d="M187.17,374.42h0c0-10.33,8.38-18.71,18.71-18.71h10.37"/></g><g><path class="cls-3" d="M327.37,274.05h0c0,10.33-8.38,18.71-18.71,18.71h-10.37"/><path class="cls-3" d="M327.37,337.76h0c0-10.33-8.38-18.71-18.71-18.71h-10.37"/><path class="cls-3" d="M312.83,374.42h0c0-10.33-8.38-18.71-18.71-18.71h-10.37"/></g><circle class="cls-6" cx="250" cy="271.18" r="35.06"/><path class="cls-2" d="M212.79,271.18c-7.56,0-13.69,6.13-13.69,13.7v44.96c0,28.11,22.79,50.9,50.9,50.9h0v-109.56h-37.21Z"/><path class="cls-7" d="M300.9,329.84v-44.96c0-7.56-6.13-13.7-13.69-13.7h-37.21v109.56h0c28.11,0,50.9-22.79,50.9-50.9Z"/><g><path class="cls-3" d="M199.1,223.65s3.03,22.92,25.45,32.36"/><path class="cls-3" d="M300.9,223.65s-3.03,22.92-25.45,32.36"/></g></g></svg>